<mxfile host="Electron" modified="2023-11-27T18:51:07.004Z" agent="Mozilla/5.0 (Macintosh; Intel Mac OS X 10_15_7) AppleWebKit/537.36 (KHTML, like Gecko) draw.io/22.1.2 Chrome/114.0.5735.289 Electron/25.9.4 Safari/537.36" etag="xKy65C66mmne-JAAYptb" version="22.1.2" type="device">
  <diagram name="Сторінка-1" id="eJcDeiUaU-LR0d5j-0mC">
    <mxGraphModel dx="1464" dy="796" grid="1" gridSize="10" guides="1" tooltips="1" connect="1" arrows="1" fold="1" page="1" pageScale="1" pageWidth="827" pageHeight="1169" math="0" shadow="0">
      <root>
        <mxCell id="0" />
        <mxCell id="1" parent="0" />
        <mxCell id="KyLfdxKxTYJEkCAc4EI9-3" value="" style="edgeStyle=orthogonalEdgeStyle;rounded=0;orthogonalLoop=1;jettySize=auto;html=1;" edge="1" parent="1" source="KyLfdxKxTYJEkCAc4EI9-1" target="KyLfdxKxTYJEkCAc4EI9-2">
          <mxGeometry relative="1" as="geometry" />
        </mxCell>
        <mxCell id="KyLfdxKxTYJEkCAc4EI9-1" value="Input" style="ellipse;whiteSpace=wrap;html=1;" vertex="1" parent="1">
          <mxGeometry x="100" y="30" width="120" height="80" as="geometry" />
        </mxCell>
        <mxCell id="KyLfdxKxTYJEkCAc4EI9-7" value="" style="edgeStyle=orthogonalEdgeStyle;rounded=0;orthogonalLoop=1;jettySize=auto;html=1;" edge="1" parent="1" source="KyLfdxKxTYJEkCAc4EI9-2" target="KyLfdxKxTYJEkCAc4EI9-5">
          <mxGeometry relative="1" as="geometry" />
        </mxCell>
        <mxCell id="KyLfdxKxTYJEkCAc4EI9-2" value="Input values" style="shape=parallelogram;perimeter=parallelogramPerimeter;whiteSpace=wrap;html=1;fixedSize=1;" vertex="1" parent="1">
          <mxGeometry x="100" y="140" width="120" height="60" as="geometry" />
        </mxCell>
        <mxCell id="KyLfdxKxTYJEkCAc4EI9-13" value="" style="edgeStyle=orthogonalEdgeStyle;rounded=0;orthogonalLoop=1;jettySize=auto;html=1;" edge="1" parent="1" source="KyLfdxKxTYJEkCAc4EI9-4" target="KyLfdxKxTYJEkCAc4EI9-12">
          <mxGeometry relative="1" as="geometry" />
        </mxCell>
        <mxCell id="KyLfdxKxTYJEkCAc4EI9-26" style="edgeStyle=orthogonalEdgeStyle;rounded=0;orthogonalLoop=1;jettySize=auto;html=1;" edge="1" parent="1" source="KyLfdxKxTYJEkCAc4EI9-4" target="KyLfdxKxTYJEkCAc4EI9-24">
          <mxGeometry relative="1" as="geometry" />
        </mxCell>
        <mxCell id="KyLfdxKxTYJEkCAc4EI9-4" value="while number of&lt;br&gt;candles by max( L_i/ r_i ) is not &amp;gt;= n" style="shape=hexagon;perimeter=hexagonPerimeter2;whiteSpace=wrap;html=1;fixedSize=1;" vertex="1" parent="1">
          <mxGeometry x="280" y="240" width="120" height="80" as="geometry" />
        </mxCell>
        <mxCell id="KyLfdxKxTYJEkCAc4EI9-10" value="" style="edgeStyle=orthogonalEdgeStyle;rounded=0;orthogonalLoop=1;jettySize=auto;html=1;" edge="1" parent="1" source="KyLfdxKxTYJEkCAc4EI9-5" target="KyLfdxKxTYJEkCAc4EI9-8">
          <mxGeometry relative="1" as="geometry" />
        </mxCell>
        <mxCell id="KyLfdxKxTYJEkCAc4EI9-5" value="init needed arrays&lt;br&gt;all r_i = 1" style="rounded=0;whiteSpace=wrap;html=1;" vertex="1" parent="1">
          <mxGeometry x="250" y="140" width="120" height="60" as="geometry" />
        </mxCell>
        <mxCell id="KyLfdxKxTYJEkCAc4EI9-11" style="edgeStyle=orthogonalEdgeStyle;rounded=0;orthogonalLoop=1;jettySize=auto;html=1;" edge="1" parent="1" source="KyLfdxKxTYJEkCAc4EI9-8" target="KyLfdxKxTYJEkCAc4EI9-4">
          <mxGeometry relative="1" as="geometry" />
        </mxCell>
        <mxCell id="KyLfdxKxTYJEkCAc4EI9-8" value="calculate number of&lt;br&gt;... if dividing by L_i / r_i" style="rounded=0;whiteSpace=wrap;html=1;" vertex="1" parent="1">
          <mxGeometry x="400" y="140" width="140" height="60" as="geometry" />
        </mxCell>
        <mxCell id="KyLfdxKxTYJEkCAc4EI9-15" value="" style="edgeStyle=orthogonalEdgeStyle;rounded=0;orthogonalLoop=1;jettySize=auto;html=1;" edge="1" parent="1" source="KyLfdxKxTYJEkCAc4EI9-12" target="KyLfdxKxTYJEkCAc4EI9-14">
          <mxGeometry relative="1" as="geometry" />
        </mxCell>
        <mxCell id="KyLfdxKxTYJEkCAc4EI9-12" value="find max among L/r" style="rounded=0;whiteSpace=wrap;html=1;" vertex="1" parent="1">
          <mxGeometry x="280" y="340" width="120" height="60" as="geometry" />
        </mxCell>
        <mxCell id="KyLfdxKxTYJEkCAc4EI9-22" style="edgeStyle=orthogonalEdgeStyle;rounded=0;orthogonalLoop=1;jettySize=auto;html=1;" edge="1" parent="1" source="KyLfdxKxTYJEkCAc4EI9-14">
          <mxGeometry relative="1" as="geometry">
            <mxPoint x="460" y="280" as="targetPoint" />
          </mxGeometry>
        </mxCell>
        <mxCell id="KyLfdxKxTYJEkCAc4EI9-14" value="increase r by 1 (recalculate L/r for this one)" style="rounded=0;whiteSpace=wrap;html=1;" vertex="1" parent="1">
          <mxGeometry x="250" y="540" width="180" height="60" as="geometry" />
        </mxCell>
        <mxCell id="KyLfdxKxTYJEkCAc4EI9-19" style="edgeStyle=orthogonalEdgeStyle;rounded=0;orthogonalLoop=1;jettySize=auto;html=1;exitX=1;exitY=0.5;exitDx=0;exitDy=0;entryX=1;entryY=0.5;entryDx=0;entryDy=0;" edge="1" parent="1" source="KyLfdxKxTYJEkCAc4EI9-16" target="KyLfdxKxTYJEkCAc4EI9-4">
          <mxGeometry relative="1" as="geometry" />
        </mxCell>
        <mxCell id="KyLfdxKxTYJEkCAc4EI9-16" value="if division on this length&lt;br&gt;&amp;nbsp;candles is bad" style="rhombus;whiteSpace=wrap;html=1;" vertex="1" parent="1">
          <mxGeometry x="240" y="430" width="200" height="80" as="geometry" />
        </mxCell>
        <mxCell id="KyLfdxKxTYJEkCAc4EI9-18" value="Yes" style="text;html=1;strokeColor=none;fillColor=none;align=center;verticalAlign=middle;whiteSpace=wrap;rounded=0;" vertex="1" parent="1">
          <mxGeometry x="290" y="510" width="60" height="30" as="geometry" />
        </mxCell>
        <mxCell id="KyLfdxKxTYJEkCAc4EI9-20" value="NO" style="text;html=1;strokeColor=none;fillColor=none;align=center;verticalAlign=middle;whiteSpace=wrap;rounded=0;" vertex="1" parent="1">
          <mxGeometry x="410" y="430" width="60" height="30" as="geometry" />
        </mxCell>
        <mxCell id="KyLfdxKxTYJEkCAc4EI9-27" value="" style="edgeStyle=orthogonalEdgeStyle;rounded=0;orthogonalLoop=1;jettySize=auto;html=1;" edge="1" parent="1" source="KyLfdxKxTYJEkCAc4EI9-24" target="KyLfdxKxTYJEkCAc4EI9-25">
          <mxGeometry relative="1" as="geometry" />
        </mxCell>
        <mxCell id="KyLfdxKxTYJEkCAc4EI9-24" value="cout max(L/r)" style="shape=parallelogram;perimeter=parallelogramPerimeter;whiteSpace=wrap;html=1;fixedSize=1;" vertex="1" parent="1">
          <mxGeometry x="40" y="415" width="120" height="60" as="geometry" />
        </mxCell>
        <mxCell id="KyLfdxKxTYJEkCAc4EI9-25" value="End" style="ellipse;whiteSpace=wrap;html=1;" vertex="1" parent="1">
          <mxGeometry x="40" y="510" width="120" height="80" as="geometry" />
        </mxCell>
      </root>
    </mxGraphModel>
  </diagram>
</mxfile>
